<?xml version="1.0" standalone="no"?>
<!DOCTYPE svg PUBLIC "-//W3C//DTD SVG 20010904//EN"
 "http://www.w3.org/TR/2001/REC-SVG-20010904/DTD/svg10.dtd">
<svg version="1.0" xmlns="http://www.w3.org/2000/svg"
 width="852.000000pt" height="1280.000000pt" viewBox="0 0 852.000000 1280.000000"
 preserveAspectRatio="xMidYMid meet">
<metadata>
Created by potrace 1.15, written by Peter Selinger 2001-2017
</metadata>
<g transform="translate(0.000000,1280.000000) scale(0.100000,-0.100000)"
fill="#2196f3" stroke="none">
<path d="M4455 12789 c-87 -13 -203 -44 -281 -75 -117 -47 -178 -89 -266 -185
-46 -50 -103 -102 -127 -116 l-43 -26 -182 9 c-99 5 -311 9 -471 9 -237 0
-309 -4 -395 -19 -229 -40 -376 -99 -530 -214 -152 -112 -711 -446 -1045 -622
-108 -58 -131 -75 -231 -175 -247 -246 -681 -908 -775 -1182 -43 -127 -81
-461 -99 -883 -20 -465 -9 -828 30 -981 32 -126 203 -634 330 -979 100 -272
149 -426 139 -434 -2 -1 -34 -24 -72 -50 -81 -57 -160 -149 -199 -232 -28 -61
-28 -61 -14 -135 17 -87 94 -305 142 -400 37 -75 63 -95 171 -130 l70 -22 -5
-156 -4 -156 162 -460 c153 -437 171 -482 361 -895 l200 -435 412 -457 412
-456 43 -184 c23 -100 42 -191 42 -201 0 -9 -23 -93 -51 -186 l-52 -169 -241
-103 c-367 -156 -833 -362 -922 -407 -43 -22 -117 -73 -163 -112 -47 -40 -239
-198 -428 -352 l-343 -280 0 -469 0 -469 218 0 c581 1 3626 20 3629 24 2 2 -6
20 -19 41 l-22 38 220 -6 c120 -4 523 -16 894 -27 371 -11 792 -24 935 -29
143 -4 456 -9 695 -10 239 -1 773 -6 1185 -10 413 -5 751 -7 753 -6 3 3 -19
1698 -22 1701 0 1 -95 7 -209 13 l-208 12 -162 65 -162 66 -320 332 -320 333
-27 -14 c-16 -7 -28 -18 -28 -24 0 -6 23 -85 50 -176 28 -91 50 -170 50 -176
0 -19 -32 18 -56 64 -58 116 -185 555 -204 705 -5 43 -14 205 -20 359 -6 154
-15 318 -20 365 -26 239 -51 547 -51 645 -1 95 7 150 56 395 52 262 130 630
170 807 l16 73 160 2 160 3 225 474 225 473 -11 487 c-5 267 -12 522 -14 566
-6 112 -49 235 -165 472 -75 152 -115 220 -172 293 -42 53 -79 101 -83 108 -4
7 6 25 28 45 19 18 38 46 42 63 9 36 -46 494 -81 669 -14 68 -35 148 -47 177
-23 52 -23 59 -24 508 -1 492 -5 549 -57 697 -85 242 -174 388 -328 538 -118
115 -178 202 -305 438 -127 237 -146 267 -273 432 -329 428 -453 545 -656 618
-65 23 -414 88 -735 136 -283 43 -362 48 -485 30z m-1725 -2194 c80 -9 159
-22 175 -29 44 -20 225 -175 346 -295 123 -124 202 -232 224 -306 41 -142 289
-379 786 -751 124 -93 246 -184 271 -202 l47 -32 15 52 c19 68 138 498 167
605 22 81 22 83 6 230 -9 81 -14 149 -12 151 9 9 151 -185 219 -298 87 -147
154 -228 366 -445 234 -240 372 -388 417 -447 29 -38 79 -145 173 -373 73
-176 135 -327 137 -336 4 -13 -56 -47 -259 -152 -144 -74 -461 -239 -702 -366
-435 -230 -439 -232 -460 -213 -24 21 -306 182 -414 236 -89 45 -145 59 -337
87 -99 15 -201 22 -300 23 -136 0 -158 -3 -239 -27 -198 -61 -377 -135 -471
-195 -74 -47 -174 -133 -195 -167 -28 -45 -80 -201 -80 -240 l0 -31 -142 -12
c-78 -7 -178 -22 -222 -33 -82 -21 -234 -75 -249 -89 -5 -4 -25 1 -45 10 -20
10 -84 28 -142 40 -58 12 -136 32 -175 43 -63 20 -92 22 -290 22 -153 -1 -260
-6 -353 -19 -119 -16 -322 -54 -378 -71 -18 -6 -22 0 -32 45 -7 31 -9 79 -6
118 l6 67 33 2 c43 2 88 26 150 78 38 32 70 48 126 64 94 26 344 45 403 30 23
-5 91 -18 153 -28 124 -19 123 -20 123 44 0 44 -31 68 -170 134 -168 79 -207
85 -468 73 -226 -11 -279 -21 -308 -60 -12 -15 -13 -13 -14 16 0 56 177 389
246 462 33 36 57 137 109 465 52 326 80 470 103 540 13 39 92 143 352 465
l335 415 380 357 c350 329 383 358 415 358 19 0 100 -7 180 -15z m4638 -2292
c95 -121 174 -262 256 -455 87 -206 84 -176 96 -783 l11 -540 -209 -440 -210
-440 -117 2 c-114 2 -224 22 -252 44 -17 15 -17 76 2 172 8 43 15 99 15 123 0
31 6 50 21 65 19 19 28 21 104 14 82 -7 82 -7 87 18 5 25 3 25 -73 32 -144 13
-177 -10 -190 -132 -5 -43 -15 -118 -23 -166 -8 -48 -13 -95 -10 -105 14 -44
30 -62 64 -76 l38 -15 -29 -121 c-38 -161 -149 -686 -194 -925 -36 -184 -37
-195 -31 -355 3 -91 17 -275 31 -410 14 -135 30 -357 35 -495 5 -137 12 -293
16 -345 11 -162 137 -623 215 -786 16 -34 49 -82 73 -107 55 -55 61 -80 61
-262 0 -195 -6 -224 -63 -289 -51 -58 -226 -297 -419 -571 -150 -213 -487
-701 -538 -777 l-37 -57 -112 5 c-61 2 -417 14 -791 24 -1078 31 -1350 41
-1356 48 -9 9 -1503 2352 -1516 2377 -6 11 -21 65 -33 120 -13 55 -25 107 -28
115 -4 9 4 7 24 -8 230 -176 493 -325 691 -391 56 -19 86 -21 310 -21 380 0
585 32 778 123 331 154 1047 577 1450 856 228 157 457 341 538 431 60 67 580
806 642 914 l28 48 -24 19 c-32 25 -36 24 -55 -13 -24 -47 -132 -207 -319
-473 -89 -126 -191 -273 -227 -325 -130 -187 -329 -350 -813 -669 -509 -334
-1171 -708 -1370 -773 -173 -57 -479 -85 -755 -69 -176 10 -188 14 -411 127
-217 110 -464 287 -513 367 -10 15 -205 237 -434 492 l-417 464 -189 413
c-175 383 -200 446 -347 866 l-159 452 0 146 0 146 23 -5 c51 -13 189 -28 268
-29 60 -1 106 5 161 21 143 41 548 198 770 299 107 49 123 103 123 419 l0 212
95 36 c119 44 195 61 334 74 187 19 179 21 200 -46 26 -81 113 -300 132 -328
18 -27 129 -87 259 -140 73 -29 111 -38 205 -46 203 -19 609 7 747 47 29 8 76
31 105 51 281 191 425 316 471 408 13 28 37 110 52 185 14 74 30 138 33 142
17 16 1435 758 1449 758 4 0 41 -83 82 -183 95 -237 143 -336 179 -370 l29
-28 7 41 c4 23 4 63 0 89 -7 57 6 130 53 276 30 96 44 122 103 200 182 240
252 309 348 346 45 16 252 52 343 58 10 1 53 -46 107 -116z m-318 -6987 c0 -2
-8 -10 -17 -17 -16 -13 -17 -12 -4 4 13 16 21 21 21 13z m-30 -40 c0 -2 -8
-10 -17 -17 -16 -13 -17 -12 -4 4 13 16 21 21 21 13z m-30 -40 c0 -2 -8 -10
-17 -17 -16 -13 -17 -12 -4 4 13 16 21 21 21 13z"/>
<path d="M3663 8085 c-311 -38 -410 -60 -553 -122 -139 -61 -258 -126 -338
-187 -63 -47 -63 -47 73 -66 79 -11 99 -10 150 4 288 78 396 109 494 140 205
66 429 70 846 16 83 -10 189 -22 237 -26 84 -6 87 -6 112 19 33 33 34 77 4
137 -20 39 -30 47 -73 61 -69 23 -246 37 -525 43 -206 4 -259 2 -427 -19z"/>
<path d="M7127 8156 c-82 -30 -98 -51 -180 -248 -41 -100 -78 -192 -81 -203
-3 -11 -15 -92 -26 -180 -12 -88 -30 -200 -42 -250 -26 -113 -21 -262 16 -474
15 -79 26 -155 26 -167 0 -19 5 -24 25 -24 22 0 25 4 25 33 0 17 -12 95 -26
172 -37 210 -42 339 -16 450 12 50 31 162 42 250 25 193 18 165 97 360 51 125
74 168 103 197 64 63 170 62 224 -2 30 -37 97 -207 132 -340 27 -97 34 -109
62 -91 11 7 9 26 -13 106 -70 259 -136 383 -218 414 -38 15 -104 13 -150 -3z"/>
<path d="M7224 7296 c-88 -28 -97 -39 -175 -203 l-73 -155 18 -71 c26 -100 69
-202 112 -264 38 -56 53 -63 74 -38 11 13 9 20 -13 43 -36 37 -80 130 -112
234 l-26 88 64 137 c60 127 69 140 108 162 57 33 125 33 151 1 29 -35 47 -117
50 -217 l2 -93 29 0 28 0 -6 98 c-16 240 -85 323 -231 278z"/>
<path d="M2140 6337 c0 -49 -33 -144 -101 -295 -40 -86 -101 -236 -136 -332
-58 -157 -66 -186 -74 -284 -6 -70 -5 -122 1 -146 22 -83 105 -157 245 -220
78 -35 71 -34 78 -16 4 10 -22 28 -90 61 -115 56 -188 122 -199 180 -4 21 -4
82 -1 135 5 87 13 115 75 286 38 104 91 234 117 289 75 159 105 242 112 306 5
51 4 59 -11 59 -10 0 -16 -8 -16 -23z"/>
<path d="M3463 5762 c-8 -5 -2 -23 23 -62 19 -30 34 -65 34 -79 0 -44 -131
-193 -186 -211 -34 -12 -47 -40 -19 -40 53 0 182 118 225 205 24 49 17 81 -30
149 -17 26 -32 46 -33 46 -1 0 -7 -4 -14 -8z"/>
<path d="M2785 5426 c-155 -39 -185 -63 -185 -147 0 -66 10 -99 40 -129 l20
-20 -26 -10 c-15 -6 -59 -13 -99 -17 l-72 -6 -61 81 c-89 116 -104 125 -206
121 -103 -5 -131 -23 -122 -78 11 -67 96 -163 116 -131 5 9 -2 21 -21 38 -34
28 -59 72 -59 102 0 26 35 40 104 40 66 0 84 -13 167 -120 72 -94 86 -99 204
-75 83 18 135 39 135 56 0 5 -16 19 -35 30 -24 14 -38 32 -45 57 -28 103 -4
134 132 168 138 35 189 32 343 -20 85 -29 133 -41 140 -35 13 13 -2 22 -105
60 -94 34 -199 59 -245 58 -16 -1 -71 -11 -120 -23z"/>
<path d="M3980 4690 c-74 -10 -265 -35 -425 -55 -159 -19 -373 -50 -475 -68
-118 -20 -214 -31 -265 -31 -44 1 -166 3 -270 5 l-191 4 -74 -37 c-135 -67
-300 -207 -350 -295 l-32 -57 28 -23 c53 -43 254 -174 316 -206 l61 -32 251 1
c331 2 662 33 822 79 67 19 117 54 247 172 97 88 464 468 517 536 l21 27 -23
-1 c-13 -1 -84 -9 -158 -19z"/>
</g>
</svg>
